<svg xmlns="http://www.w3.org/2000/svg" width="340" height="94" viewBox="0 0 340 94">
<linearGradient gradientUnits="userSpaceOnUse" id="metal" x1="0" y1="0" x2="0" y2="94"><stop offset="0" stop-color="#e0bd78"/><stop offset="0.25" stop-color="#b58c48"/><stop offset="0.55" stop-color="#8d642d"/><stop offset="1" stop-color="#61411f"/></linearGradient><path d="M28 4H312L335 27V65L312 88H28L5 65V27Z" fill="#000" opacity=".65" transform="translate(0 5)"/><path d="M28 4H312L335 27V65L312 88H28L5 65V27Z" fill="#231c12" stroke="#dfbd7c" stroke-width="2"/><path d="M31 9H309L329 29V63L309 83H31L11 63V29Z" fill="url(#metal)" stroke="#f5dc9f" stroke-width="1"/><path d="M35 15H305L323 32V60L305 77H35L17 60V32Z" fill="none" stroke="#48331a" stroke-width="2"/><path d="M37 18H303L320 34V58L303 74H37L20 58V34Z" fill="none" stroke="#ddba76" stroke-width=".9"/><path d="M42 22H298M42 70H298" stroke="#ead097" opacity=".3"/><path d="M29 32L36 25H55M285 25H304L311 32M29 60L36 67H55M285 67H304L311 60" fill="none" stroke="#f1d695" opacity=".65"/>
</svg>
