<svg xmlns="http://www.w3.org/2000/svg" width="96" height="96" viewBox="0 0 96 96">
<circle cx="48" cy="48" r="47" fill="#27e6df" opacity="0.0140"/>
<circle cx="48" cy="48" r="46" fill="#27e6df" opacity="0.0140"/>
<circle cx="48" cy="48" r="45" fill="#27e6df" opacity="0.0140"/>
<circle cx="48" cy="48" r="44" fill="#27e6df" opacity="0.0140"/>
<circle cx="48" cy="48" r="43" fill="#27e6df" opacity="0.0140"/>
<circle cx="48" cy="48" r="42" fill="#27e6df" opacity="0.0141"/>
<circle cx="48" cy="48" r="41" fill="#27e6df" opacity="0.0141"/>
<circle cx="48" cy="48" r="40" fill="#27e6df" opacity="0.0141"/>
<circle cx="48" cy="48" r="39" fill="#27e6df" opacity="0.0142"/>
<circle cx="48" cy="48" r="38" fill="#27e6df" opacity="0.0142"/>
<circle cx="48" cy="48" r="37" fill="#27e6df" opacity="0.0143"/>
<circle cx="48" cy="48" r="36" fill="#27e6df" opacity="0.0144"/>
<circle cx="48" cy="48" r="35" fill="#27e6df" opacity="0.0145"/>
<circle cx="48" cy="48" r="34" fill="#27e6df" opacity="0.0147"/>
<circle cx="48" cy="48" r="33" fill="#27e6df" opacity="0.0148"/>
<circle cx="48" cy="48" r="32" fill="#27e6df" opacity="0.0150"/>
<circle cx="48" cy="48" r="31" fill="#27e6df" opacity="0.0152"/>
<circle cx="48" cy="48" r="30" fill="#27e6df" opacity="0.0154"/>
<circle cx="48" cy="48" r="29" fill="#27e6df" opacity="0.0157"/>
<circle cx="48" cy="48" r="28" fill="#27e6df" opacity="0.0160"/>
<circle cx="48" cy="48" r="27" fill="#27e6df" opacity="0.0163"/>
<circle cx="48" cy="48" r="26" fill="#27e6df" opacity="0.0166"/>
<circle cx="48" cy="48" r="25" fill="#27e6df" opacity="0.0170"/>
<circle cx="48" cy="48" r="24" fill="#27e6df" opacity="0.0174"/>
<circle cx="48" cy="48" r="23" fill="#27e6df" opacity="0.0178"/>
<circle cx="48" cy="48" r="22" fill="#27e6df" opacity="0.0183"/>
<circle cx="48" cy="48" r="21" fill="#27e6df" opacity="0.0188"/>
<circle cx="48" cy="48" r="20" fill="#27e6df" opacity="0.0194"/>
<circle cx="48" cy="48" r="19" fill="#27e6df" opacity="0.0200"/>
<circle cx="48" cy="48" r="18" fill="#27e6df" opacity="0.0206"/>
<circle cx="48" cy="48" r="17" fill="#27e6df" opacity="0.0213"/>
<circle cx="48" cy="48" r="16" fill="#27e6df" opacity="0.0220"/>
<circle cx="48" cy="48" r="15" fill="#27e6df" opacity="0.0228"/>
<circle cx="48" cy="48" r="14" fill="#27e6df" opacity="0.0236"/>
<circle cx="48" cy="48" r="13" fill="#27e6df" opacity="0.0245"/>
<circle cx="48" cy="48" r="12" fill="#27e6df" opacity="0.0254"/>
<circle cx="48" cy="48" r="11" fill="#27e6df" opacity="0.0264"/>
<circle cx="48" cy="48" r="10" fill="#27e6df" opacity="0.0274"/>
<circle cx="48" cy="48" r="9" fill="#27e6df" opacity="0.0285"/>
<circle cx="48" cy="48" r="8" fill="#27e6df" opacity="0.0296"/>
<circle cx="48" cy="48" r="7" fill="#27e6df" opacity="0.0308"/>
<circle cx="48" cy="48" r="6" fill="#27e6df" opacity="0.0321"/>
<circle cx="48" cy="48" r="5" fill="#27e6df" opacity="0.0334"/>
<circle cx="48" cy="48" r="4" fill="#27e6df" opacity="0.0348"/>
<circle cx="48" cy="48" r="3" fill="#27e6df" opacity="0.0362"/>
<circle cx="48" cy="48" r="2" fill="#27e6df" opacity="0.0378"/>
</svg>
