<svg xmlns="http://www.w3.org/2000/svg" width="728" height="224" viewBox="0 0 364 112">
<linearGradient gradientUnits="userSpaceOnUse" id="plate" x1="0" y1="0" x2="0" y2="112"><stop offset="0" stop-color="#222c2c"/><stop offset="0.45" stop-color="#111b1e"/><stop offset="1" stop-color="#080e11"/></linearGradient><linearGradient gradientUnits="userSpaceOnUse" id="brass" x1="0" y1="0" x2="0" y2="95"><stop offset="0" stop-color="#f3daa0"/><stop offset="0.22" stop-color="#bb9152"/><stop offset="0.6" stop-color="#71502c"/><stop offset="0.82" stop-color="#d6b777"/><stop offset="1" stop-color="#54391f"/></linearGradient><path d="M79 5H285L296 16L298 31L304 42L298 55L296 66L285 79H79L68 66L66 55L60 42L66 31L68 16Z" fill="#000" opacity=".6" transform="translate(0 5)"/><path d="M79 5H285L296 16L298 31L304 42L298 55L296 66L285 79H79L68 66L66 55L60 42L66 31L68 16Z" fill="url(#brass)" stroke="#4f391f" stroke-width="1.2"/><path d="M81 9H283L292 18L294 33L299 42L294 53L292 64L283 74H81L72 64L70 53L65 42L70 33L72 18Z" fill="url(#plate)" stroke="#e4c488" stroke-width=".7"/><path d="M86 13H278L287 21L289 35L293 42L289 51L287 61L279 69H85L77 61L75 51L71 42L75 35L77 21Z" fill="none" stroke="#9b7b47" stroke-width=".7"/><g><path d="M10 47H43Q52 47 54 41L61 38M43 47Q52 47 54 53L61 56" fill="none" stroke="#74532b" stroke-width="3"/><path d="M10 46H43Q52 46 54 40L61 37M43 46Q52 46 54 52L61 55" fill="none" stroke="#d0ac69" stroke-width=".9"/><path d="M8 40L14 46L8 52L2 46Z" fill="url(#brass)" stroke="#c5a26a" stroke-width=".7"/><path d="M59 14Q70 5 68 18Q64 26 58 21Q54 17 59 14M61 58Q51 62 60 69Q66 70 67 64" fill="none" stroke="#d0ab69" stroke-width="1.1"/><path d="M70 9L74 5L78 9L74 13ZM65 39L69 43L65 47L61 43Z" fill="#c3a064"/></g><g transform="translate(364 0) scale(-1 1)"><path d="M10 47H43Q52 47 54 41L61 38M43 47Q52 47 54 53L61 56" fill="none" stroke="#74532b" stroke-width="3"/><path d="M10 46H43Q52 46 54 40L61 37M43 46Q52 46 54 52L61 55" fill="none" stroke="#d0ac69" stroke-width=".9"/><path d="M8 40L14 46L8 52L2 46Z" fill="url(#brass)" stroke="#c5a26a" stroke-width=".7"/><path d="M59 14Q70 5 68 18Q64 26 58 21Q54 17 59 14M61 58Q51 62 60 69Q66 70 67 64" fill="none" stroke="#d0ab69" stroke-width="1.1"/><path d="M70 9L74 5L78 9L74 13ZM65 39L69 43L65 47L61 43Z" fill="#c3a064"/></g><path d="M87 10H128M236 10H277" stroke="#f4dea9" opacity=".5"/>
</svg>
